<?xml version="1.0" ?><svg id="wsp" style="enable-background:new 0 0 64 64;" version="1.0" viewBox="0 0 64 64" xml:space="preserve" xmlns="http://www.w3.org/2000/svg" xmlns:xlink="http://www.w3.org/1999/xlink"><g><path d="M48.19,38.35l-7.39-3.59c-0.4-0.19-0.89-0.1-1.19,0.24c-0.35,0.39-0.87,0.97-1.52,1.65l-0.28,0.29   c-1.43,1.48-1.82,1.88-2.18,1.94c-0.32,0.06-0.63,0.01-1.57-0.44c-3.06-1.47-5.06-3.39-5.27-3.6c-1.33-1.32-2.5-2.81-3.47-4.45   c-0.06-0.27-0.09-0.57-0.04-0.88c0.15-0.89,0.8-1.82,1.86-2.69c0.32-0.26,0.45-0.7,0.31-1.1l-2.94-8.59   c-0.14-0.4-0.52-0.68-0.95-0.68h-3.38c-0.16,0-0.31,0.04-0.45,0.11c-0.06,0.03-6.28,3.25-4.55,11.17c0.01,0.06,0.03,0.13,0.06,0.19   c0.29,0.68,7.38,16.59,22.58,20.09c0.09,0.02,0.84,0.14,1.91,0.14c2.44,0,6.57-0.64,8.69-4.66c0.07-0.13,0.11-0.27,0.11-0.41   l0.21-3.75C48.77,38.9,48.55,38.53,48.19,38.35z M46.56,42.72c-2.43,4.27-8.14,3.34-8.33,3.31c-13.61-3.13-20.53-17.59-21.1-18.84   c-1.18-5.65,2.43-8.21,3.33-8.75h2.4l2.49,7.28c-1.14,1.07-1.83,2.22-2.03,3.44c-0.12,0.72-0.01,1.35,0.1,1.82   c0.02,0.1,0.06,0.19,0.11,0.27c1.08,1.84,2.38,3.53,3.87,5c0.24,0.24,2.46,2.37,5.81,3.98c1.1,0.53,1.88,0.79,2.82,0.6   c1-0.19,1.52-0.73,3.24-2.52l0.28-0.29c0.41-0.43,0.77-0.81,1.07-1.14l6.12,2.97L46.56,42.72z"/><path d="M32,4.75C16.97,4.75,4.75,16.97,4.75,32c0,5.63,1.7,11.03,4.93,15.62l-2.09,7.81c-0.09,0.34,0.01,0.71,0.26,0.97   c0.25,0.25,0.62,0.35,0.97,0.26l7.89-2.11c4.53,3.08,9.81,4.71,15.3,4.71c15.03,0,27.25-12.23,27.25-27.25   C59.25,16.97,47.03,4.75,32,4.75z M32,57.25c-5.24,0-10.26-1.59-14.54-4.61c-0.17-0.12-0.37-0.18-0.58-0.18   c-0.09,0-0.17,0.01-0.26,0.03l-6.67,1.79l1.77-6.59c0.08-0.29,0.02-0.6-0.16-0.85C8.41,42.5,6.75,37.37,6.75,32   C6.75,18.07,18.08,6.75,32,6.75S57.25,18.07,57.25,32C57.25,45.92,45.92,57.25,32,57.25z"/><path d="M32-0.04C14.33-0.04-0.04,14.33-0.04,32c0,5.48,1.41,10.88,4.09,15.65l-4.05,15.13C-0.1,63.13,0,63.5,0.25,63.75   c0.19,0.19,0.45,0.29,0.71,0.29c0.09,0,0.17-0.01,0.26-0.03l15.13-4.05c4.77,2.68,10.17,4.09,15.65,4.09   c17.67,0,32.04-14.37,32.04-32.04S49.67-0.04,32-0.04z M32,62.04c-5.27,0-10.46-1.39-15.01-4.03c-0.15-0.09-0.33-0.13-0.5-0.13   c-0.09,0-0.17,0.01-0.26,0.03L2.37,61.63l3.71-13.85c0.07-0.26,0.03-0.53-0.1-0.76C3.35,42.46,1.96,37.27,1.96,32   C1.96,15.44,15.43,1.96,32,1.96S62.04,15.44,62.04,32C62.04,48.57,48.57,62.04,32,62.04z"/></g></svg>